<?xml version="1.0" encoding="UTF-8" standalone="no"?>
<!-- Generator: Adobe Illustrator 19.1.1, SVG Export Plug-In . SVG Version: 6.00 Build 0)  -->

<svg
   xmlns:dc="http://purl.org/dc/elements/1.1/"
   xmlns:cc="http://creativecommons.org/ns#"
   xmlns:rdf="http://www.w3.org/1999/02/22-rdf-syntax-ns#"
   xmlns:svg="http://www.w3.org/2000/svg"
   xmlns="http://www.w3.org/2000/svg"
   xmlns:sodipodi="http://sodipodi.sourceforge.net/DTD/sodipodi-0.dtd"
   xmlns:inkscape="http://www.inkscape.org/namespaces/inkscape"
   version="1.1"
   x="0px"
   y="0px"
   viewBox="0 0 48 48"
   style="enable-background:new 0 0 48 48;"
   xml:space="preserve"
   id="svg44"
   sodipodi:docname="Calendar ISO 8601.svg"
   inkscape:version="0.92.1 r15371"><metadata
     id="metadata50"><rdf:RDF><cc:Work
         rdf:about=""><dc:format>image/svg+xml</dc:format><dc:type
           rdf:resource="http://purl.org/dc/dcmitype/StillImage" /><dc:title></dc:title></cc:Work></rdf:RDF></metadata><defs
     id="defs48" /><sodipodi:namedview
     pagecolor="#ffffff"
     bordercolor="#666666"
     borderopacity="1"
     objecttolerance="10"
     gridtolerance="10"
     guidetolerance="10"
     inkscape:pageopacity="0"
     inkscape:pageshadow="2"
     inkscape:window-width="1035"
     inkscape:window-height="691"
     id="namedview46"
     showgrid="false"
     inkscape:zoom="4"
     inkscape:cx="24"
     inkscape:cy="24"
     inkscape:window-x="566"
     inkscape:window-y="248"
     inkscape:window-maximized="0"
     inkscape:current-layer="svg44" /><path
     style="fill:#CFD8DC;"
     d="M5,39V15h38v24c0,2.209-1.791,4-4,4H9C6.791,43,5,41.209,5,39"
     id="path2" /><path
     style="fill:#00aa00"
     d="M43,11v6H5v-6c0-2.209,1.791-4,4-4h30C41.209,7,43,8.791,43,11"
     id="path4" /><path
     style="fill:#008000"
     d="M36,11c0,1.656-1.343,3-3,3c-1.657,0-3-1.344-3-3c0-1.656,1.343-3,3-3C34.657,8,36,9.344,36,11"
     id="path6" /><path
     style="fill:#008000"
     d="M18,11c0,1.656-1.343,3-3,3c-1.657,0-3-1.344-3-3c0-1.656,1.343-3,3-3C16.657,8,18,9.344,18,11"
     id="path8" /><path
     style="fill:#B0BEC5;"
     d="M33,4c-1.105,0-2,0.897-2,2v5c0,1.104,0.895,2,2,2c1.103,0,2-0.896,2-2V6C35,4.897,34.103,4,33,4"
     id="path10" /><path
     style="fill:#B0BEC5;"
     d="M15,4c-1.105,0-2,0.897-2,2v5c0,1.104,0.895,2,2,2c1.103,0,2-0.896,2-2V6C17,4.897,16.103,4,15,4"
     id="path12" /><rect
     x="13"
     y="18.799999"
     style="fill:#90a4ae"
     width="4"
     height="4"
     id="rect14" /><rect
     x="19"
     y="18.799999"
     style="fill:#90a4ae"
     width="4"
     height="4"
     id="rect16" /><rect
     x="25"
     y="18.799999"
     style="fill:#90a4ae"
     width="4"
     height="4"
     id="rect18" /><rect
     x="31"
     y="18.799999"
     style="fill:#90a4ae"
     width="4"
     height="4"
     id="rect20" /><rect
     x="13"
     y="24.799999"
     style="fill:#90a4ae"
     width="4"
     height="4"
     id="rect22" /><rect
     x="19"
     y="24.799999"
     style="fill:#90a4ae"
     width="4"
     height="4"
     id="rect24" /><rect
     x="25"
     y="24.799999"
     style="fill:#71c837"
     width="4"
     height="4"
     id="rect26" /><rect
     x="31"
     y="24.799999"
     style="fill:#90a4ae"
     width="4"
     height="4"
     id="rect28" /><rect
     x="13"
     y="30.799999"
     style="fill:#90a4ae"
     width="4"
     height="4"
     id="rect30" /><rect
     x="19"
     y="30.799999"
     style="fill:#90a4ae"
     width="4"
     height="4"
     id="rect32" /><rect
     x="25"
     y="30.799999"
     style="fill:#90a4ae"
     width="4"
     height="4"
     id="rect34" /><rect
     x="31"
     y="30.799999"
     style="fill:#90a4ae"
     width="4"
     height="4"
     id="rect36" /><rect
     x="13"
     y="36.700001"
     style="fill:#90a4ae"
     width="4"
     height="4"
     id="rect14-8" /><rect
     x="19"
     y="36.700001"
     style="fill:#90a4ae"
     width="4"
     height="4"
     id="rect16-5" /><rect
     x="25"
     y="36.700001"
     style="fill:#90a4ae"
     width="4"
     height="4"
     id="rect18-8" /><rect
     x="31"
     y="36.700001"
     style="fill:#90a4ae"
     width="4"
     height="4"
     id="rect20-7" /><text
     xml:space="preserve"
     style="font-style:normal;font-variant:normal;font-weight:normal;font-stretch:normal;font-size:4.50265694px;line-height:1.25;font-family:Rockwell;-inkscape-font-specification:Rockwell;text-align:center;letter-spacing:0px;word-spacing:0px;text-anchor:middle;fill:#71c837;fill-opacity:1;stroke:none;stroke-width:0.11256642;"
     x="24.092598"
     y="10.77599"
     id="text4554"
     transform="scale(1.0088235,0.99125367)"><tspan
       sodipodi:role="line"
       id="tspan4552"
       x="24.092598"
       y="10.77599"
       style="text-align:center;text-anchor:middle;fill:#71c837;stroke-width:0.11256642;">ISO</tspan><tspan
       sodipodi:role="line"
       x="24.092598"
       y="16.40431"
       style="text-align:center;text-anchor:middle;fill:#71c837;stroke-width:0.11256642;"
       id="tspan4556">8601</tspan></text>
</svg>